<svg xmlns="http://www.w3.org/2000/svg" width="70" height="70" viewBox="0 0 70 70" style="width: 100%; height: 100%;"><desc>Made with illustrio</desc>
  
<g class="base"><g fill="none" fill-rule="evenodd" stroke="none" class="main-fill">
    
    <path fill="none" d="M15.2408083,0.0833583333 C12.7420417,1.64651667 10.1759,0.330925 8.31985,0.0833583333 C0.136791667,-0.988225 -2.46306667,8.55580833 3.50134167,12.383 C1.96373333,13.182575 2.06255,17.2212833 3.70819167,17.808175 C-0.165433333,18.24865 -0.886025,23.702875 1.190875,25.928525 C3.71985833,28.632975 11.4891583,28.46095 13.7717417,25.928525 C15.3570083,24.1607917 15.5754667,20.5172917 14.1855,18.8460417 C12.9233417,17.3166 6.54050833,17.0783083 6.639325,14.6748583 C6.7137,12.9908333 9.01139167,13.2535083 10.4188,12.58635 C13.0430417,11.3311917 14.5922583,7.56793333 13.5567833,4.667075 C14.150675,4.55665 14.64575,4.359075 15.2408083,4.25565 L15.2408083,0.0833583333 L15.2408083,0.0833583333 L15.2408083,0.0833583333 Z M5.178425,8.839425 C2.10320833,2.154425 12.2248583,2.636725 9.162475,8.839425 C8.15015833,9.58900833 6.16396667,9.65994167 5.178425,8.839425 L5.178425,8.839425 Z M10.8348917,21.9793 C11.1045083,24.975475 5.04128333,25.1091167 4.33585833,23.0171667 C3.74663333,21.2529333 4.47416667,20.759025 6.21745833,20.3162167 C8.19204167,19.7978667 10.6477583,19.9698333 10.8348917,21.9793 L10.8348917,21.9793 Z" transform="translate(27.358 21)" stroke="none" class="main-fill"></path>
  </g></g><style>
          .main-fill {fill: #ffffff;}
          .main-stroke {stroke: #ffffff;}
          .secondary-fill {fill: #556fff;}
          .secondary-stroke {stroke: #556fff;}

          .main-fill--darken {fill: #d9d9d9;}
          .main-stroke--darken {stroke: #d9d9d9;}
          .secondary-fill--darken {fill: #082eff;}
          .secondary-stroke--darken {stroke: #082eff;}

          .main-fill--darkener {fill: #bfbfbf;}
          .main-stroke--darkener {stroke: #bfbfbf;}
          .secondary-fill--darkener {fill: #0020d4;}
          .secondary-stroke--darkener {stroke: #0020d4;}
        </style></svg>