<svg xmlns="http://www.w3.org/2000/svg" width="70" height="70" viewBox="0 0 70 70" style="width: 100%; height: 100%;"><desc>Made with illustrio</desc>
  
<g class="base"><g fill="none" fill-rule="evenodd" stroke="none" class="main-fill">
    
    
  </g><g fill="none" transform="translate(20.364 22.91)" stroke="none" class="main-fill">
      <path d="M10.1818182,0 L0.636363636,0 C0.285090909,0 0,0.285090909 0,0.636363636 L0,19.7272727 C0,20.0791818 0.285090909,20.3636364 0.636363636,20.3636364 L10.1818182,20.3636364 L10.1818182,0 L10.1818182,0 Z" fill="none" stroke="none" class="main-fill"></path>
      <polygon points="19.091 3.489 11.455 .217 11.455 20.693 19.091 23.965" fill="none" stroke="none" class="main-fill"></polygon>
      <path d="M28.987,0.105 C28.8081818,-0.0127272727 28.5816364,-0.0324545455 28.3862727,0.0515454545 L20.3636364,3.48918182 L20.3636364,23.9648182 L28.8870909,20.3120909 C29.1212727,20.2121818 29.2727273,19.9818182 29.2727273,19.7272727 L29.2727273,0.636363636 C29.2727273,0.422545455 29.1651818,0.222727273 28.987,0.105 L28.987,0.105 Z" fill="none" stroke="none" class="main-fill"></path>
    </g></g><style>
          .main-fill {fill: #003232;}
          .main-stroke {stroke: #003232;}
          .secondary-fill {fill: #ffffff;}
          .secondary-stroke {stroke: #ffffff;}

          .main-fill--darken {fill: #000000;}
          .main-stroke--darken {stroke: #000000;}
          .secondary-fill--darken {fill: #d9d9d9;}
          .secondary-stroke--darken {stroke: #d9d9d9;}

          .main-fill--darkener {fill: #000000;}
          .main-stroke--darkener {stroke: #000000;}
          .secondary-fill--darkener {fill: #bfbfbf;}
          .secondary-stroke--darkener {stroke: #bfbfbf;}
        </style></svg>