<svg xmlns="http://www.w3.org/2000/svg" width="70" height="70" viewBox="0 0 70 70" style="width: 100%; height: 100%;"><desc>Made with illustrio</desc>
  
<g class="base"><g fill="none" fill-rule="evenodd" stroke="none" class="main-fill">
    
    <path fill="none" d="M27.8929583,16.37965 L27.8929583,26.6896 L21.9122167,26.6896 L21.9122167,17.0653583 C21.9122167,14.6456333 21.049875,13.0011 18.885825,13.0011 C17.23085,13.0011 16.2545833,14.1145083 15.818775,15.1860333 C15.6618583,15.5719083 15.6142,16.1123083 15.6142,16.6457667 L15.6142,26.688375 L9.63935,26.688375 C9.63935,26.688375 9.71955833,10.3942417 9.63935,8.70671667 L15.615425,8.70671667 L15.615425,11.2554167 C15.6073167,11.2763583 15.589875,11.2937417 15.5817083,11.3170167 L15.615425,11.3170167 L15.615425,11.2554167 C16.4138333,10.030475 17.8282417,8.28479167 21.00455,8.28479167 C24.946775,8.28485 27.8929583,10.8544917 27.8929583,16.37965 L27.8929583,16.37965 Z M3.38315833,0.0366916667 C1.33886667,0.0366916667 0,1.37789167 0,3.14679167 C0,4.86803333 1.299375,6.25455833 3.30645,6.25455833 L3.3425,6.25455833 C5.43211667,6.25455833 6.726825,4.86803333 6.726825,3.14679167 C6.68616667,1.37789167 5.432175,0.0366916667 3.38315833,0.0366916667 L3.38315833,0.0366916667 Z M0.356825,26.6895417 L6.33406667,26.6895417 L6.33406667,8.70560833 L0.356825,8.70560833 L0.356825,26.6895417 L0.356825,26.6895417 Z" transform="translate(21 21.642)" stroke="none" class="main-fill"></path>
  </g></g><style>
          .main-fill {fill: #ffffff;}
          .main-stroke {stroke: #ffffff;}
          .secondary-fill {fill: #556fff;}
          .secondary-stroke {stroke: #556fff;}

          .main-fill--darken {fill: #d9d9d9;}
          .main-stroke--darken {stroke: #d9d9d9;}
          .secondary-fill--darken {fill: #082eff;}
          .secondary-stroke--darken {stroke: #082eff;}

          .main-fill--darkener {fill: #bfbfbf;}
          .main-stroke--darkener {stroke: #bfbfbf;}
          .secondary-fill--darkener {fill: #0020d4;}
          .secondary-stroke--darkener {stroke: #0020d4;}
        </style></svg>