<svg xmlns="http://www.w3.org/2000/svg" width="70" height="70" viewBox="0 0 70 70" style="width: 100%; height: 100%;"><desc>Made with illustrio</desc>
  
<g class="base"><g fill="none" fill-rule="evenodd" stroke="none" class="main-fill">
    
    
  </g><g fill="none" transform="translate(25.455 17.818)" stroke="none" class="main-fill">
      <path d="M19.0909091 3.81818182L0 3.81818182 0 28 19.0909091 28 19.0909091 3.81818182 19.0909091 3.81818182zM14.1864545 5.27736364C14.4352727 5.02854545 14.8374545 5.02854545 15.0862727 5.27736364L16.359 6.55009091C16.6078182 6.79890909 16.6078182 7.20109091 16.359 7.44990909 16.2349091 7.574 16.072 7.63636364 15.9090909 7.63636364 15.7461818 7.63636364 15.5832727 7.574 15.4591818 7.44990909L14.1864545 6.17718182C13.9376364 5.92836364 13.9376364 5.52618182 14.1864545 5.27736364L14.1864545 5.27736364zM12.0909091 7.63636364C11.928 7.63636364 11.7650909 7.574 11.641 7.44990909L10.3682727 6.17718182C10.1194545 5.92836364 10.1194545 5.52618182 10.3682727 5.27736364 10.6170909 5.02854545 11.0192727 5.02854545 11.2680909 5.27736364L12.5408182 6.55009091C12.7896364 6.79890909 12.7896364 7.20109091 12.5408182 7.44990909 12.4167273 7.574 12.2538182 7.63636364 12.0909091 7.63636364L12.0909091 7.63636364zM16.359 11.2680909C16.2349091 11.3921818 16.072 11.4545455 15.9090909 11.4545455 15.7461818 11.4545455 15.5832727 11.3921818 15.4591818 11.2680909L12.9137273 8.72263636C12.6649091 8.47381818 12.6649091 8.07163636 12.9137273 7.82281818 13.1625455 7.574 13.5647273 7.574 13.8135455 7.82281818L16.359 10.3682727C16.6078182 10.6170909 16.6078182 11.0192727 16.359 11.2680909L16.359 11.2680909zM19.0909091 2.54545455L19.0909091.636363636C19.0909091.285090909 18.8064545 0 18.4545455 0L.636363636 0C.285090909 0 0 .285090909 0 .636363636L0 2.54545455 19.0909091 2.54545455 19.0909091 2.54545455zM0 29.2727273L0 33.7272727C0 34.0791818.285090909 34.3636364.636363636 34.3636364L18.4545455 34.3636364C18.8064545 34.3636364 19.0909091 34.0791818 19.0909091 33.7272727L19.0909091 29.2727273 0 29.2727273 0 29.2727273zM9.54545455 32.4545455C8.84290909 32.4545455 8.27272727 31.8843636 8.27272727 31.1818182 8.27272727 30.4792727 8.84290909 29.9090909 9.54545455 29.9090909 10.248 29.9090909 10.8181818 30.4792727 10.8181818 31.1818182 10.8181818 31.8843636 10.248 32.4545455 9.54545455 32.4545455L9.54545455 32.4545455z" fill="none" stroke="none" class="main-fill"></path>
    </g></g><style>
          .main-fill {fill: #003232;}
          .main-stroke {stroke: #003232;}
          .secondary-fill {fill: #ffffff;}
          .secondary-stroke {stroke: #ffffff;}

          .main-fill--darken {fill: #000000;}
          .main-stroke--darken {stroke: #000000;}
          .secondary-fill--darken {fill: #d9d9d9;}
          .secondary-stroke--darken {stroke: #d9d9d9;}

          .main-fill--darkener {fill: #000000;}
          .main-stroke--darkener {stroke: #000000;}
          .secondary-fill--darkener {fill: #bfbfbf;}
          .secondary-stroke--darkener {stroke: #bfbfbf;}
        </style></svg>