<svg xmlns="http://www.w3.org/2000/svg" width="70" height="70" viewBox="0 0 70 70" style="width: 100%; height: 100%;"><desc>Made with illustrio</desc>
  
<g class="base"><g fill="none" fill-rule="evenodd" stroke="none" class="main-fill">
    
    
  </g><g fill="none" transform="translate(17.818 17.818)" stroke="none" class="main-fill">
      <path d="M0,6.36363636 L0,33.7272727 C0,34.0791818 0.285090909,34.3636364 0.636363636,34.3636364 L33.7272727,34.3636364 C34.0791818,34.3636364 34.3636364,34.0791818 34.3636364,33.7272727 L34.3636364,6.36363636 L0,6.36363636 L0,6.36363636 Z M14.6363636,31.8181818 L3.18181818,31.8181818 C2.83054545,31.8181818 2.54545455,31.5337273 2.54545455,31.1818182 C2.54545455,30.8299091 2.83054545,30.5454545 3.18181818,30.5454545 L14.6363636,30.5454545 C14.9876364,30.5454545 15.2727273,30.8299091 15.2727273,31.1818182 C15.2727273,31.5337273 14.9876364,31.8181818 14.6363636,31.8181818 L14.6363636,31.8181818 Z M14.6363636,29.2727273 L3.18181818,29.2727273 C2.83054545,29.2727273 2.54545455,28.9882727 2.54545455,28.6363636 C2.54545455,28.2844545 2.83054545,28 3.18181818,28 L14.6363636,28 C14.9876364,28 15.2727273,28.2844545 15.2727273,28.6363636 C15.2727273,28.9882727 14.9876364,29.2727273 14.6363636,29.2727273 L14.6363636,29.2727273 Z M14.6363636,26.7272727 L3.18181818,26.7272727 C2.83054545,26.7272727 2.54545455,26.4428182 2.54545455,26.0909091 C2.54545455,25.739 2.83054545,25.4545455 3.18181818,25.4545455 L14.6363636,25.4545455 C14.9876364,25.4545455 15.2727273,25.739 15.2727273,26.0909091 C15.2727273,26.4428182 14.9876364,26.7272727 14.6363636,26.7272727 L14.6363636,26.7272727 Z M31.1818182,31.8181818 L19.7272727,31.8181818 C19.3753636,31.8181818 19.0909091,31.5337273 19.0909091,31.1818182 C19.0909091,30.8299091 19.3753636,30.5454545 19.7272727,30.5454545 L31.1818182,30.5454545 C31.5337273,30.5454545 31.8181818,30.8299091 31.8181818,31.1818182 C31.8181818,31.5337273 31.5337273,31.8181818 31.1818182,31.8181818 L31.1818182,31.8181818 Z M31.1818182,29.2727273 L19.7272727,29.2727273 C19.3753636,29.2727273 19.0909091,28.9882727 19.0909091,28.6363636 C19.0909091,28.2844545 19.3753636,28 19.7272727,28 L31.1818182,28 C31.5337273,28 31.8181818,28.2844545 31.8181818,28.6363636 C31.8181818,28.9882727 31.5337273,29.2727273 31.1818182,29.2727273 L31.1818182,29.2727273 Z M31.1818182,26.7272727 L19.7272727,26.7272727 C19.3753636,26.7272727 19.0909091,26.4428182 19.0909091,26.0909091 C19.0909091,25.739 19.3753636,25.4545455 19.7272727,25.4545455 L31.1818182,25.4545455 C31.5337273,25.4545455 31.8181818,25.739 31.8181818,26.0909091 C31.8181818,26.4428182 31.5337273,26.7272727 31.1818182,26.7272727 L31.1818182,26.7272727 Z M31.8181818,22.2727273 C31.8181818,22.6246364 31.5337273,22.9090909 31.1818182,22.9090909 L3.18181818,22.9090909 C2.83054545,22.9090909 2.54545455,22.6246364 2.54545455,22.2727273 L2.54545455,8.27272727 C2.54545455,7.92145455 2.83054545,7.63636364 3.18181818,7.63636364 L31.1818182,7.63636364 C31.5337273,7.63636364 31.8181818,7.92145455 31.8181818,8.27272727 L31.8181818,22.2727273 L31.8181818,22.2727273 Z" fill="none" stroke="none" class="main-fill"></path>
      <rect width="26.727" height="12.727" x="3.818" y="8.909" fill="none" stroke="none" class="main-fill"></rect>
      <path d="M34.3636364,5.09090909 L34.3636364,0.636363636 C34.3636364,0.285090909 34.0791818,0 33.7272727,0 L0.636363636,0 C0.285090909,0 0,0.285090909 0,0.636363636 L0,5.09090909 L34.3636364,5.09090909 L34.3636364,5.09090909 Z M29.9090909,1.27272727 C30.6116364,1.27272727 31.1818182,1.84290909 31.1818182,2.54545455 C31.1818182,3.248 30.6116364,3.81818182 29.9090909,3.81818182 C29.2065455,3.81818182 28.6363636,3.248 28.6363636,2.54545455 C28.6363636,1.84290909 29.2065455,1.27272727 29.9090909,1.27272727 L29.9090909,1.27272727 Z M26.0909091,1.27272727 C26.7934545,1.27272727 27.3636364,1.84290909 27.3636364,2.54545455 C27.3636364,3.248 26.7934545,3.81818182 26.0909091,3.81818182 C25.3883636,3.81818182 24.8181818,3.248 24.8181818,2.54545455 C24.8181818,1.84290909 25.3883636,1.27272727 26.0909091,1.27272727 L26.0909091,1.27272727 Z M22.2727273,1.27272727 C22.9752727,1.27272727 23.5454545,1.84290909 23.5454545,2.54545455 C23.5454545,3.248 22.9752727,3.81818182 22.2727273,3.81818182 C21.5701818,3.81818182 21,3.248 21,2.54545455 C21,1.84290909 21.5701818,1.27272727 22.2727273,1.27272727 L22.2727273,1.27272727 Z" fill="none" stroke="none" class="main-fill"></path>
    </g></g><style>
          .main-fill {fill: #003232;}
          .main-stroke {stroke: #003232;}
          .secondary-fill {fill: #ffffff;}
          .secondary-stroke {stroke: #ffffff;}

          .main-fill--darken {fill: #000000;}
          .main-stroke--darken {stroke: #000000;}
          .secondary-fill--darken {fill: #d9d9d9;}
          .secondary-stroke--darken {stroke: #d9d9d9;}

          .main-fill--darkener {fill: #000000;}
          .main-stroke--darkener {stroke: #000000;}
          .secondary-fill--darkener {fill: #bfbfbf;}
          .secondary-stroke--darkener {stroke: #bfbfbf;}
        </style></svg>